<svg xmlns="http://www.w3.org/2000/svg" viewBox="0 0 196.15 196.15"><defs><style>.cls-1{fill:#f2f2f2;stroke:#fff;stroke-miterlimit:10;}</style></defs><g id="Layer_2" data-name="Layer 2"><g id="Layer_1-2" data-name="Layer 1"><path class="cls-1" d="M.5,103.78V92.35A13.35,13.35,0,0,0,.82,90.7,91.7,91.7,0,0,1,12,52.28C27.14,24.8,50.19,8,81.07,2,84.79,1.32,88.58,1,92.35.5h11.43a9.63,9.63,0,0,0,1.47.31,90.32,90.32,0,0,1,38.45,11.1c32.07,18,49.51,45.39,51.77,82.09a89.27,89.27,0,0,1-11.33,49.84c-17.91,32-45.36,49.37-82,51.63a90.46,90.46,0,0,1-49.86-11.3C24.79,169,8,145.94,2,115.05,1.32,111.33,1,107.54.5,103.78Zm97.65-87a81.27,81.27,0,0,0-.27,162.53c44.72.24,81.27-36.17,81.45-81.13C179.51,53.43,143.09,16.92,98.15,16.8Z"/><path class="cls-1" d="M85,97.84c.79.84,1.26,1.35,1.74,1.83L119,131.87c4.21,4.2,4.63,9,1.1,12.57s-8.38,3.14-12.57-1.05Q88.23,124.13,69,104.87c-4.58-4.58-4.61-9-.07-13.54q19.45-19.47,38.93-38.92c3.23-3.23,6.72-4,10.16-2.22a8,8,0,0,1,2.72,12.17,22.23,22.23,0,0,1-1.8,2Q103,80.3,87,96.24C86.45,96.78,85.81,97.21,85,97.84Z"/></g></g></svg>